# xmcd
#
# Track frame offsets:
#  150
#  22383
#  44152
#  60476
#  77298
#  101766
#  121344
#  130698
#  148157
#  162693
#  174706
#  193627
#
# Disc length: 2830 seconds
# Revision: 0
# Processed by: cddbd v1.5.1PL0 Copyright (c) Steve Scherf et al.
# Submitted via: dyson 0.5
#
DISCID=b00b0c0c
DTITLE=Billy Stapleton - Got To Be a Love
DYEAR=1900
DGENRE=
TTITLE0=Got To Be a Love
TTITLE1=Blue Attitude
TTITLE2=Mack Attack
TTITLE3=No One Leads the Blind
TTITLE4=Real Gone Love
TTITLE5=Build Me Up
TTITLE6=Turkey in the Mayonnaise
TTITLE7=This Mountain
TTITLE8=Loveof My LIfe
TTITLE9=Steppin Out
TTITLE10=Before I Go
TTITLE11=I'll Fall Down
EXTD=
EXTT0=
EXTT1=
EXTT2=
EXTT3=
EXTT4=
EXTT5=
EXTT6=
EXTT7=
EXTT8=
EXTT9=
EXTT10=
EXTT11=
PLAYORDER=
